<?xml version="1.0" ?><svg viewBox="0 0 64 64" xmlns="http://www.w3.org/2000/svg"><title/><g data-name="11-Sore throat" id="_11-Sore_throat"><path d="M26,44v3.42a2,2,0,0,1-1.537,1.946L9.61,52.9A6,6,0,0,0,5,58.739V63" style="fill:none;stroke:#000;stroke-linejoin:round;stroke-width:2px"/><line style="fill:none;stroke:#000;stroke-linejoin:round;stroke-width:2px" x1="38" x2="38" y1="41" y2="47"/><path d="M50,63H48l-7-3.636-6.565-6.529a1.434,1.434,0,0,1,.347-2.3h0a1.93,1.93,0,0,1,2.308.28L42,55l-5.565-4.892a1.434,1.434,0,0,1,.347-2.3h0a1.93,1.93,0,0,1,2.308.28L44,53h.026l-5.548-5.576a1.5,1.5,0,0,1,.3-2.346h0a1.929,1.929,0,0,1,2.308.28L46,50l-4.585-4.522a1.365,1.365,0,0,1,.381-2.211h0a1.946,1.946,0,0,1,2.337.277L50,49V46a2.091,2.091,0,0,1,2-2h0a2.091,2.091,0,0,1,2,2v7l2,2.727h0C56,59.744,54.017,63,50,63Z" style="fill:none;stroke:#000;stroke-linejoin:round;stroke-width:2px"/><path d="M18,19v4H16a2,2,0,0,0-2,2v1c0,2.713,2.529,5.258,5,6,1.276,6.417,6.208,11,13,11s11.724-4.583,13-11c2.471-.742,5-3.287,5-6V25a2,2,0,0,0-2-2H46V19c-5,0-5-8-5-8s-3,5-6,5l1-4s-5,7-12,7V13l-6,5Z" style="fill:none;stroke:#000;stroke-linejoin:round;stroke-width:2px"/><path d="M50,27l3.123-3.9A4,4,0,0,0,54,20.6V12c0-6-5-8-8-8a4.333,4.333,0,0,0-4,2A11.785,11.785,0,0,0,32,1C24,1,22,4,18,6S6,9,6,9a8.613,8.613,0,0,0,8,5,10.8,10.8,0,0,0-4,8c0,5,5,7,5,7" style="fill:none;stroke:#000;stroke-linejoin:round;stroke-width:2px"/><path d="M28,39s0-5,4-5,4,5,4,5Z" style="fill:none;stroke:#000;stroke-linejoin:round;stroke-width:2px"/><path d="M34,18c0,2.211,2.236,4,5,4" style="fill:none;stroke:#000;stroke-linejoin:round;stroke-width:2px"/><path d="M30,18c0,2.211-2.236,4-5,4" style="fill:none;stroke:#000;stroke-linejoin:round;stroke-width:2px"/><polyline points="42 23 36 26 42 28" style="fill:none;stroke:#000;stroke-linejoin:round;stroke-width:2px"/><polyline points="22 23 28 26 22 28" style="fill:none;stroke:#000;stroke-linejoin:round;stroke-width:2px"/><polyline points="56 56 63 62 63 63" style="fill:none;stroke:#000;stroke-linejoin:round;stroke-width:2px"/><path d="M25,49a7.943,7.943,0,0,0,7,4h2" style="fill:none;stroke:#000;stroke-linejoin:round;stroke-width:2px"/><polyline points="13 33 17 36 15 38 19 41" style="fill:none;stroke:#000;stroke-linejoin:round;stroke-width:2px"/><polyline points="7 40 13 40 11 43 17 43" style="fill:none;stroke:#000;stroke-linejoin:round;stroke-width:2px"/><polyline points="21 46 15 46 17 49 11 49" style="fill:none;stroke:#000;stroke-linejoin:round;stroke-width:2px"/><polyline points="52 32 48 35 50 37 46 40" style="fill:none;stroke:#000;stroke-linejoin:round;stroke-width:2px"/><polyline points="58 39 52 39 54 42 48 42" style="fill:none;stroke:#000;stroke-linejoin:round;stroke-width:2px"/></g></svg>